<mxfile host="app.diagrams.net" modified="2024-04-10T14:49:51.369Z" agent="Mozilla/5.0 (Windows NT 10.0; Win64; x64) AppleWebKit/537.36 (KHTML, like Gecko) Chrome/123.0.0.0 Safari/537.36" etag="_MNmI6b7gGzWZcxAtXga" version="24.2.3" type="github">
  <diagram name="Page-1" id="lUMOGSvvNI-4q4CKnHqg">
    <mxGraphModel dx="1750" dy="870" grid="1" gridSize="10" guides="1" tooltips="1" connect="1" arrows="1" fold="1" page="1" pageScale="1" pageWidth="1500" pageHeight="1300" background="#FFFFFF" math="0" shadow="0">
      <root>
        <mxCell id="0" />
        <mxCell id="1" parent="0" />
        <mxCell id="EbBNntHS6jhSmtaPfabT-42" value="&lt;font color=&quot;#ffffff&quot; style=&quot;font-size: 15px;&quot;&gt;&lt;b style=&quot;background-color: rgb(0, 0, 0);&quot;&gt;&amp;nbsp;Discriminator&amp;nbsp;&lt;/b&gt;&lt;/font&gt;" style="html=1;align=center;verticalAlign=top;rounded=0;absoluteArcSize=1;arcSize=20;dashed=1;whiteSpace=wrap;fillColor=#fff2cc;strokeColor=#d6b656;strokeWidth=2;movable=0;resizable=0;rotatable=0;deletable=0;editable=0;locked=1;connectable=0;" parent="1" vertex="1">
          <mxGeometry x="240" y="720" width="1080" height="250" as="geometry" />
        </mxCell>
        <mxCell id="EbBNntHS6jhSmtaPfabT-1" value="&lt;div&gt;&lt;span style=&quot;background-color: rgb(0, 0, 0);&quot;&gt;&lt;br&gt;&lt;/span&gt;&lt;/div&gt;&lt;div&gt;&lt;span style=&quot;background-color: rgb(0, 0, 0);&quot;&gt;&lt;br&gt;&lt;/span&gt;&lt;/div&gt;&lt;div&gt;&lt;span style=&quot;background-color: rgb(0, 0, 0);&quot;&gt;&lt;br&gt;&lt;/span&gt;&lt;/div&gt;&lt;div&gt;&lt;span style=&quot;background-color: rgb(0, 0, 0);&quot;&gt;&lt;br&gt;&lt;/span&gt;&lt;/div&gt;&lt;div&gt;&lt;span style=&quot;background-color: rgb(0, 0, 0);&quot;&gt;&lt;br&gt;&lt;/span&gt;&lt;/div&gt;&lt;div&gt;&lt;span style=&quot;background-color: rgb(0, 0, 0);&quot;&gt;&lt;br&gt;&lt;/span&gt;&lt;/div&gt;&lt;div&gt;&lt;span style=&quot;background-color: rgb(0, 0, 0);&quot;&gt;&lt;br&gt;&lt;/span&gt;&lt;/div&gt;&lt;div&gt;&lt;span style=&quot;background-color: rgb(0, 0, 0);&quot;&gt;&lt;br&gt;&lt;/span&gt;&lt;/div&gt;&lt;div&gt;&lt;span style=&quot;background-color: rgb(0, 0, 0);&quot;&gt;&lt;br&gt;&lt;/span&gt;&lt;/div&gt;&lt;div&gt;&lt;span style=&quot;background-color: rgb(0, 0, 0);&quot;&gt;&lt;br&gt;&lt;/span&gt;&lt;/div&gt;&lt;div&gt;&lt;span style=&quot;background-color: rgb(0, 0, 0);&quot;&gt;&lt;br&gt;&lt;/span&gt;&lt;/div&gt;&lt;div&gt;&lt;span style=&quot;background-color: rgb(0, 0, 0);&quot;&gt;&lt;br&gt;&lt;/span&gt;&lt;/div&gt;&lt;div&gt;&lt;span style=&quot;background-color: rgb(0, 0, 0);&quot;&gt;&lt;br&gt;&lt;/span&gt;&lt;/div&gt;&lt;div&gt;&lt;span style=&quot;background-color: rgb(0, 0, 0);&quot;&gt;&lt;br&gt;&lt;/span&gt;&lt;/div&gt;&lt;div style=&quot;line-height: 30%;&quot;&gt;&lt;font color=&quot;#ffffff&quot; style=&quot;font-size: 15px; background-color: rgb(0, 0, 0);&quot;&gt;&amp;nbsp;Generator&amp;nbsp;&lt;/font&gt;&lt;/div&gt;" style="html=1;align=center;verticalAlign=top;rounded=0;absoluteArcSize=1;arcSize=10;dashed=1;whiteSpace=wrap;fillColor=#d5e8d4;strokeColor=#82b366;movable=1;resizable=1;rotatable=1;deletable=1;editable=1;locked=0;connectable=1;strokeWidth=2;" parent="1" vertex="1">
          <mxGeometry x="538" y="343" width="510" height="230" as="geometry" />
        </mxCell>
        <mxCell id="EbBNntHS6jhSmtaPfabT-41" style="edgeStyle=orthogonalEdgeStyle;rounded=0;orthogonalLoop=1;jettySize=auto;html=1;entryX=0;entryY=0.5;entryDx=0;entryDy=0;strokeWidth=2;movable=1;resizable=1;rotatable=1;deletable=1;editable=1;locked=0;connectable=1;" parent="1" source="EbBNntHS6jhSmtaPfabT-5" target="EbBNntHS6jhSmtaPfabT-40" edge="1">
          <mxGeometry relative="1" as="geometry">
            <Array as="points">
              <mxPoint x="1205" y="690" />
              <mxPoint x="46" y="690" />
              <mxPoint x="46" y="845" />
            </Array>
          </mxGeometry>
        </mxCell>
        <mxCell id="EbBNntHS6jhSmtaPfabT-5" value="" style="shape=image;verticalLabelPosition=bottom;labelBackgroundColor=default;verticalAlign=top;aspect=fixed;imageAspect=0;image=https://upload.wikimedia.org/wikipedia/commons/thumb/4/45/Eopsaltria_australis_-_Mogo_Campground.jpg/640px-Eopsaltria_australis_-_Mogo_Campground.jpg;movable=1;resizable=1;rotatable=1;deletable=1;editable=1;locked=0;connectable=1;rounded=0;" parent="1" vertex="1">
          <mxGeometry x="1118" y="401.31" width="172.92" height="115.38" as="geometry" />
        </mxCell>
        <mxCell id="EbBNntHS6jhSmtaPfabT-17" value="" style="edgeStyle=orthogonalEdgeStyle;rounded=0;orthogonalLoop=1;jettySize=auto;html=1;strokeWidth=2;" parent="1" source="EbBNntHS6jhSmtaPfabT-8" target="EbBNntHS6jhSmtaPfabT-13" edge="1">
          <mxGeometry relative="1" as="geometry" />
        </mxCell>
        <mxCell id="EbBNntHS6jhSmtaPfabT-8" value="&lt;font style=&quot;font-size: 15px;&quot; color=&quot;#ffffff&quot;&gt;CLIP Text Encoder&lt;/font&gt;" style="rounded=0;whiteSpace=wrap;html=1;fillColor=#0050ef;strokeColor=#001DBC;movable=0;resizable=0;rotatable=0;deletable=0;editable=0;locked=1;connectable=0;fontColor=#ffffff;" parent="1" vertex="1">
          <mxGeometry x="226" y="430" width="120" height="60" as="geometry" />
        </mxCell>
        <mxCell id="EbBNntHS6jhSmtaPfabT-11" value="&lt;p style=&quot;line-height: 120%;&quot;&gt;&lt;font style=&quot;font-size: 14px;&quot; color=&quot;#ffffff&quot;&gt;Z&lt;/font&gt;&lt;/p&gt;" style="html=1;dashed=0;whiteSpace=wrap;fillColor=#f0a30a;fontColor=#000000;strokeColor=#BD7000;movable=1;resizable=1;rotatable=1;deletable=1;editable=1;locked=0;connectable=1;rounded=0;" parent="1" vertex="1">
          <mxGeometry x="385" y="430" width="100" height="20" as="geometry" />
        </mxCell>
        <mxCell id="EbBNntHS6jhSmtaPfabT-19" value="" style="edgeStyle=orthogonalEdgeStyle;rounded=0;orthogonalLoop=1;jettySize=auto;html=1;jumpSize=15;curved=1;strokeWidth=2;" parent="1" source="EbBNntHS6jhSmtaPfabT-13" target="EbBNntHS6jhSmtaPfabT-18" edge="1">
          <mxGeometry relative="1" as="geometry" />
        </mxCell>
        <mxCell id="EbBNntHS6jhSmtaPfabT-13" value="&lt;font style=&quot;font-size: 14px;&quot;&gt;T&lt;/font&gt;" style="html=1;dashed=0;whiteSpace=wrap;fillColor=#0050ef;fontColor=#ffffff;strokeColor=#001DBC;movable=1;resizable=1;rotatable=1;deletable=1;editable=1;locked=0;connectable=1;rounded=0;" parent="1" vertex="1">
          <mxGeometry x="385" y="450" width="100" height="20" as="geometry" />
        </mxCell>
        <mxCell id="VmX1CCBsuHoQ8iaOTjce-1" style="edgeStyle=orthogonalEdgeStyle;rounded=0;orthogonalLoop=1;jettySize=auto;html=1;strokeWidth=2;strokeColor=#000000;jumpStyle=arc;jumpSize=10;" parent="1" edge="1">
          <mxGeometry relative="1" as="geometry">
            <mxPoint x="425.5" y="470" as="sourcePoint" />
            <mxPoint x="1183.5000000000005" y="797" as="targetPoint" />
            <Array as="points">
              <mxPoint x="425.5" y="670" />
              <mxPoint x="1183.5" y="670" />
            </Array>
          </mxGeometry>
        </mxCell>
        <mxCell id="EbBNntHS6jhSmtaPfabT-16" value="" style="edgeStyle=orthogonalEdgeStyle;rounded=0;orthogonalLoop=1;jettySize=auto;html=1;curved=0;strokeWidth=2;" parent="1" source="EbBNntHS6jhSmtaPfabT-14" target="EbBNntHS6jhSmtaPfabT-8" edge="1">
          <mxGeometry relative="1" as="geometry" />
        </mxCell>
        <mxCell id="EbBNntHS6jhSmtaPfabT-14" value="&lt;font face=&quot;Verdana&quot; style=&quot;font-size: 12px;&quot;&gt;a tiny bird wth yellow belly and light gray feathers&lt;/font&gt;" style="fontStyle=0;dashed=1;html=1;whiteSpace=wrap;strokeColor=default;strokeWidth=2;movable=0;resizable=0;rotatable=0;deletable=0;editable=0;locked=1;connectable=0;rounded=0;" parent="1" vertex="1">
          <mxGeometry x="56" y="422.5" width="140" height="75" as="geometry" />
        </mxCell>
        <mxCell id="EbBNntHS6jhSmtaPfabT-32" value="" style="edgeStyle=orthogonalEdgeStyle;rounded=0;orthogonalLoop=1;jettySize=auto;html=1;strokeWidth=2;" parent="1" source="EbBNntHS6jhSmtaPfabT-18" target="EbBNntHS6jhSmtaPfabT-29" edge="1">
          <mxGeometry relative="1" as="geometry" />
        </mxCell>
        <mxCell id="EbBNntHS6jhSmtaPfabT-18" value="&lt;div style=&quot;font-size: 14px;&quot;&gt;&lt;font style=&quot;font-size: 14px;&quot;&gt;&lt;b&gt;&lt;br&gt;&lt;/b&gt;&lt;/font&gt;&lt;/div&gt;&lt;div style=&quot;font-size: 14px;&quot;&gt;&lt;font style=&quot;font-size: 14px;&quot;&gt;&lt;b&gt;&lt;br&gt;&lt;/b&gt;&lt;/font&gt;&lt;/div&gt;&lt;div style=&quot;font-size: 14px;&quot;&gt;&lt;font style=&quot;font-size: 14px;&quot;&gt;&lt;b&gt;CLIP-Adapter&lt;/b&gt;&lt;/font&gt;&lt;/div&gt;" style="html=1;align=center;verticalAlign=top;rounded=0;absoluteArcSize=1;arcSize=10;dashed=1;whiteSpace=wrap;fillColor=#cce5ff;strokeColor=#36393d;strokeWidth=2;movable=0;resizable=0;rotatable=0;deletable=0;editable=0;locked=1;connectable=0;" parent="1" vertex="1">
          <mxGeometry x="588" y="414" width="140" height="90" as="geometry" />
        </mxCell>
        <mxCell id="EbBNntHS6jhSmtaPfabT-31" style="edgeStyle=orthogonalEdgeStyle;rounded=0;orthogonalLoop=1;jettySize=auto;html=1;entryX=0.5;entryY=0;entryDx=0;entryDy=0;strokeWidth=2;" parent="1" source="EbBNntHS6jhSmtaPfabT-20" target="EbBNntHS6jhSmtaPfabT-29" edge="1">
          <mxGeometry relative="1" as="geometry" />
        </mxCell>
        <mxCell id="EbBNntHS6jhSmtaPfabT-20" value="&lt;font style=&quot;font-size: 14px;&quot;&gt;&lt;b&gt;CLIP-Mapper&lt;/b&gt;&lt;/font&gt;" style="html=1;align=center;verticalAlign=top;rounded=0;absoluteArcSize=1;arcSize=10;dashed=1;whiteSpace=wrap;fillColor=#ffff88;strokeColor=#36393d;strokeWidth=2;movable=0;resizable=0;rotatable=0;deletable=0;editable=0;locked=1;connectable=0;" parent="1" vertex="1">
          <mxGeometry x="332" y="80" width="360" height="160" as="geometry" />
        </mxCell>
        <mxCell id="EbBNntHS6jhSmtaPfabT-26" style="edgeStyle=orthogonalEdgeStyle;rounded=0;orthogonalLoop=1;jettySize=auto;html=1;entryX=0.5;entryY=0;entryDx=0;entryDy=0;strokeWidth=2;" parent="1" source="EbBNntHS6jhSmtaPfabT-18" target="EbBNntHS6jhSmtaPfabT-21" edge="1">
          <mxGeometry relative="1" as="geometry">
            <Array as="points">
              <mxPoint x="658" y="280" />
              <mxPoint x="308" y="280" />
              <mxPoint x="308" y="160" />
            </Array>
          </mxGeometry>
        </mxCell>
        <mxCell id="EbBNntHS6jhSmtaPfabT-21" value="&lt;h4 style=&quot;&quot;&gt;&lt;font face=&quot;Helvetica&quot; style=&quot;font-size: 14px;&quot;&gt;CONV 2D&lt;/font&gt;&lt;/h4&gt;" style="rounded=0;arcSize=10;whiteSpace=wrap;html=1;align=center;rotation=-90;fillColor=#C9C9C9;strokeColor=#36393d;" parent="1" vertex="1">
          <mxGeometry x="330" y="140" width="100" height="40" as="geometry" />
        </mxCell>
        <mxCell id="EbBNntHS6jhSmtaPfabT-22" value="&lt;h4 style=&quot;&quot;&gt;&lt;span style=&quot;font-size: 14px;&quot;&gt;Class Embeddings&lt;/span&gt;&lt;/h4&gt;" style="rounded=0;arcSize=10;whiteSpace=wrap;html=1;align=center;rotation=-90;fillColor=#cce5ff;strokeColor=#36393d;" parent="1" vertex="1">
          <mxGeometry x="412" y="140" width="100" height="40" as="geometry" />
        </mxCell>
        <mxCell id="EbBNntHS6jhSmtaPfabT-23" value="&lt;h4 style=&quot;&quot;&gt;&lt;span style=&quot;font-size: 14px;&quot;&gt;Possitional Embeddings&lt;/span&gt;&lt;/h4&gt;" style="rounded=0;arcSize=10;whiteSpace=wrap;html=1;align=center;rotation=-90;fillColor=#e1d5e7;strokeColor=#9673a6;" parent="1" vertex="1">
          <mxGeometry x="492" y="140" width="100" height="40" as="geometry" />
        </mxCell>
        <mxCell id="EbBNntHS6jhSmtaPfabT-24" value="&lt;h4 style=&quot;&quot;&gt;&lt;span style=&quot;font-size: 14px;&quot;&gt;Transforer Block&lt;/span&gt;&lt;/h4&gt;" style="rounded=0;arcSize=10;whiteSpace=wrap;html=1;align=center;rotation=-90;fillColor=#cdeb8b;strokeColor=#36393d;" parent="1" vertex="1">
          <mxGeometry x="575" y="140" width="100" height="40" as="geometry" />
        </mxCell>
        <mxCell id="EbBNntHS6jhSmtaPfabT-36" style="edgeStyle=orthogonalEdgeStyle;rounded=0;orthogonalLoop=1;jettySize=auto;html=1;entryX=0;entryY=0.5;entryDx=0;entryDy=0;strokeWidth=2;" parent="1" source="EbBNntHS6jhSmtaPfabT-27" target="EbBNntHS6jhSmtaPfabT-5" edge="1">
          <mxGeometry relative="1" as="geometry" />
        </mxCell>
        <mxCell id="EbBNntHS6jhSmtaPfabT-27" value="&lt;div style=&quot;font-size: 15px;&quot;&gt;&lt;br&gt;&lt;/div&gt;&lt;div style=&quot;font-size: 15px;&quot;&gt;&lt;br&gt;&lt;/div&gt;&lt;div style=&quot;font-size: 15px;&quot;&gt;&lt;font style=&quot;font-size: 15px;&quot;&gt;&lt;b style=&quot;&quot;&gt;Image Generator&lt;/b&gt;&lt;/font&gt;&lt;/div&gt;" style="html=1;align=center;verticalAlign=top;rounded=0;absoluteArcSize=1;arcSize=10;dashed=1;whiteSpace=wrap;fillColor=#60a917;strokeColor=#2D7600;fontColor=#ffffff;strokeWidth=2;movable=0;resizable=0;rotatable=0;deletable=0;editable=0;locked=1;connectable=0;" parent="1" vertex="1">
          <mxGeometry x="838" y="414" width="160" height="90" as="geometry" />
        </mxCell>
        <mxCell id="EbBNntHS6jhSmtaPfabT-33" value="" style="edgeStyle=orthogonalEdgeStyle;rounded=0;orthogonalLoop=1;jettySize=auto;html=1;strokeWidth=2;" parent="1" source="EbBNntHS6jhSmtaPfabT-29" target="EbBNntHS6jhSmtaPfabT-27" edge="1">
          <mxGeometry relative="1" as="geometry" />
        </mxCell>
        <mxCell id="EbBNntHS6jhSmtaPfabT-29" value="" style="shape=image;html=1;verticalAlign=top;verticalLabelPosition=bottom;labelBackgroundColor=#ffffff;imageAspect=0;aspect=fixed;image=https://cdn4.iconfinder.com/data/icons/evil-icons-user-interface/64/plus-128.png;fontSize=14;fontColor=#FF3333;imageBackground=none;rounded=0;" parent="1" vertex="1">
          <mxGeometry x="758" y="439" width="40" height="40" as="geometry" />
        </mxCell>
        <mxCell id="EbBNntHS6jhSmtaPfabT-37" value="" style="endArrow=none;dashed=1;html=1;rounded=0;strokeWidth=3;strokeColor=#B3B3B3;movable=1;resizable=1;rotatable=1;deletable=1;editable=1;locked=0;connectable=1;" parent="1" edge="1">
          <mxGeometry width="50" height="50" relative="1" as="geometry">
            <mxPoint x="40" y="640" as="sourcePoint" />
            <mxPoint x="1440" y="640" as="targetPoint" />
          </mxGeometry>
        </mxCell>
        <mxCell id="EbBNntHS6jhSmtaPfabT-38" value="&lt;font style=&quot;font-size: 16px;&quot;&gt;&lt;b&gt;G&lt;/b&gt;&lt;/font&gt;" style="text;html=1;align=center;verticalAlign=middle;resizable=0;points=[];autosize=1;strokeColor=none;fillColor=none;rounded=0;" parent="1" vertex="1">
          <mxGeometry x="30" y="608" width="40" height="30" as="geometry" />
        </mxCell>
        <mxCell id="EbBNntHS6jhSmtaPfabT-39" value="&lt;font size=&quot;1&quot; style=&quot;&quot;&gt;&lt;b style=&quot;font-size: 16px;&quot;&gt;D&lt;/b&gt;&lt;/font&gt;" style="text;html=1;align=center;verticalAlign=middle;resizable=0;points=[];autosize=1;strokeColor=none;fillColor=none;rounded=0;" parent="1" vertex="1">
          <mxGeometry x="30" y="638" width="40" height="30" as="geometry" />
        </mxCell>
        <mxCell id="EbBNntHS6jhSmtaPfabT-40" value="&lt;font style=&quot;font-size: 15px;&quot; color=&quot;#ffffff&quot;&gt;CLIP Image Encoder&lt;/font&gt;" style="rounded=0;whiteSpace=wrap;html=1;fillColor=#ff42a7;strokeColor=#A50040;movable=1;resizable=1;rotatable=1;deletable=1;editable=1;locked=0;connectable=1;fontColor=#ffffff;" parent="1" vertex="1">
          <mxGeometry x="66" y="815" width="120" height="60" as="geometry" />
        </mxCell>
        <mxCell id="EbBNntHS6jhSmtaPfabT-43" value="&lt;div style=&quot;font-size: 14px;&quot;&gt;&lt;span style=&quot;font-weight: 700; text-wrap: nowrap;&quot;&gt;&lt;font style=&quot;font-size: 14px;&quot;&gt;&lt;br&gt;&lt;/font&gt;&lt;/span&gt;&lt;/div&gt;&lt;div style=&quot;font-size: 14px;&quot;&gt;&lt;span style=&quot;font-weight: 700; text-wrap: nowrap;&quot;&gt;&lt;font style=&quot;font-size: 14px;&quot;&gt;&lt;br&gt;&lt;/font&gt;&lt;/span&gt;&lt;/div&gt;&lt;span style=&quot;font-weight: 700; text-wrap: nowrap; font-size: 14px;&quot;&gt;&lt;font style=&quot;font-size: 14px;&quot;&gt;&lt;div style=&quot;&quot;&gt;&lt;span style=&quot;font-weight: 700; text-wrap: nowrap;&quot;&gt;&lt;br&gt;&lt;/span&gt;&lt;/div&gt;&lt;div style=&quot;&quot;&gt;&lt;span style=&quot;font-weight: 700; text-wrap: nowrap;&quot;&gt;&lt;br&gt;&lt;/span&gt;&lt;/div&gt;&lt;div style=&quot;&quot;&gt;&lt;span style=&quot;font-weight: 700; text-wrap: nowrap;&quot;&gt;&lt;br&gt;&lt;/span&gt;&lt;/div&gt;&lt;div style=&quot;&quot;&gt;&lt;span style=&quot;font-weight: 700; text-wrap: nowrap;&quot;&gt;&lt;br&gt;&lt;/span&gt;&lt;/div&gt;&lt;div style=&quot;&quot;&gt;&lt;span style=&quot;font-weight: 700; text-wrap: nowrap;&quot;&gt;&lt;br&gt;&lt;/span&gt;&lt;/div&gt;&lt;div style=&quot;&quot;&gt;&lt;span style=&quot;font-weight: 700; text-wrap: nowrap;&quot;&gt;&lt;br&gt;&lt;/span&gt;&lt;/div&gt;&lt;div style=&quot;&quot;&gt;&lt;span style=&quot;font-weight: 700; text-wrap: nowrap;&quot;&gt;&lt;br&gt;&lt;/span&gt;&lt;/div&gt;Discriminator Block&lt;/font&gt;&lt;/span&gt;" style="html=1;align=center;verticalAlign=top;rounded=0;absoluteArcSize=1;arcSize=20;dashed=1;whiteSpace=wrap;fillColor=#cdeb8b;strokeColor=#36393d;strokeWidth=2;" parent="1" vertex="1">
          <mxGeometry x="260" y="765" width="360" height="175" as="geometry" />
        </mxCell>
        <mxCell id="VmX1CCBsuHoQ8iaOTjce-3" style="edgeStyle=orthogonalEdgeStyle;rounded=0;orthogonalLoop=1;jettySize=auto;html=1;strokeWidth=2;" parent="1" source="EbBNntHS6jhSmtaPfabT-40" target="EbBNntHS6jhSmtaPfabT-45" edge="1">
          <mxGeometry relative="1" as="geometry">
            <Array as="points">
              <mxPoint x="280" y="845" />
              <mxPoint x="280" y="845" />
            </Array>
          </mxGeometry>
        </mxCell>
        <mxCell id="EbBNntHS6jhSmtaPfabT-45" value="&lt;h4 style=&quot;&quot;&gt;&lt;font face=&quot;Helvetica&quot; style=&quot;font-size: 14px;&quot;&gt;CONV 2D&lt;/font&gt;&lt;/h4&gt;" style="rounded=0;arcSize=10;whiteSpace=wrap;html=1;align=center;rotation=-90;fillColor=#C9C9C9;strokeColor=#36393d;" parent="1" vertex="1">
          <mxGeometry x="270" y="825" width="115" height="40" as="geometry" />
        </mxCell>
        <mxCell id="EbBNntHS6jhSmtaPfabT-47" value="&lt;h4 style=&quot;&quot;&gt;&lt;font face=&quot;Helvetica&quot; style=&quot;font-size: 14px;&quot;&gt;CONV 2D&lt;/font&gt;&lt;/h4&gt;" style="rounded=0;arcSize=10;whiteSpace=wrap;html=1;align=center;rotation=-90;fillColor=#C9C9C9;strokeColor=#36393d;" parent="1" vertex="1">
          <mxGeometry x="397" y="825" width="115" height="40" as="geometry" />
        </mxCell>
        <mxCell id="EbBNntHS6jhSmtaPfabT-48" value="&lt;h4 style=&quot;&quot;&gt;&lt;span style=&quot;font-size: 14px;&quot;&gt;RELU&lt;/span&gt;&lt;/h4&gt;" style="rounded=0;arcSize=10;whiteSpace=wrap;html=1;align=center;rotation=-90;fillColor=#e3c800;strokeColor=#B09500;fontColor=#000000;strokeWidth=2;" parent="1" vertex="1">
          <mxGeometry x="332" y="825" width="115" height="40" as="geometry" />
        </mxCell>
        <mxCell id="VmX1CCBsuHoQ8iaOTjce-4" style="edgeStyle=orthogonalEdgeStyle;rounded=0;orthogonalLoop=1;jettySize=auto;html=1;exitX=0.5;exitY=1;exitDx=0;exitDy=0;strokeWidth=2;" parent="1" source="EbBNntHS6jhSmtaPfabT-49" target="EbBNntHS6jhSmtaPfabT-50" edge="1">
          <mxGeometry relative="1" as="geometry" />
        </mxCell>
        <mxCell id="EbBNntHS6jhSmtaPfabT-49" value="&lt;h4 style=&quot;&quot;&gt;&lt;span style=&quot;font-size: 14px;&quot;&gt;RELU&lt;/span&gt;&lt;/h4&gt;" style="rounded=0;arcSize=10;whiteSpace=wrap;html=1;align=center;rotation=-90;fillColor=#e3c800;strokeColor=#B09500;fontColor=#000000;strokeWidth=2;" parent="1" vertex="1">
          <mxGeometry x="460" y="825" width="115" height="40" as="geometry" />
        </mxCell>
        <mxCell id="VmX1CCBsuHoQ8iaOTjce-9" style="edgeStyle=elbowEdgeStyle;rounded=0;orthogonalLoop=1;jettySize=auto;html=1;strokeColor=default;elbow=vertical;strokeWidth=2;endArrow=block;endFill=1;entryX=0.5;entryY=1;entryDx=0;entryDy=0;" parent="1" edge="1">
          <mxGeometry relative="1" as="geometry">
            <mxPoint x="580" y="860.9999999999998" as="targetPoint" />
            <mxPoint x="270" y="846" as="sourcePoint" />
            <Array as="points">
              <mxPoint x="420" y="910" />
            </Array>
          </mxGeometry>
        </mxCell>
        <mxCell id="EbBNntHS6jhSmtaPfabT-50" value="" style="shape=image;html=1;verticalAlign=top;verticalLabelPosition=bottom;labelBackgroundColor=#ffffff;imageAspect=0;aspect=fixed;image=https://cdn4.iconfinder.com/data/icons/evil-icons-user-interface/64/plus-128.png;fontSize=14;fontColor=#FF3333;imageBackground=none;rounded=0;" parent="1" vertex="1">
          <mxGeometry x="560" y="825" width="40" height="40" as="geometry" />
        </mxCell>
        <mxCell id="EbBNntHS6jhSmtaPfabT-51" value="" style="html=1;align=center;verticalAlign=top;rounded=0;absoluteArcSize=1;arcSize=20;dashed=1;whiteSpace=wrap;fillColor=#cdeb8b;strokeColor=#36393d;strokeWidth=2;" parent="1" vertex="1">
          <mxGeometry x="650" y="767" width="60" height="175" as="geometry" />
        </mxCell>
        <mxCell id="VmX1CCBsuHoQ8iaOTjce-20" style="edgeStyle=orthogonalEdgeStyle;rounded=0;orthogonalLoop=1;jettySize=auto;html=1;entryX=0;entryY=0.5;entryDx=0;entryDy=0;strokeWidth=2;" parent="1" source="EbBNntHS6jhSmtaPfabT-52" target="EbBNntHS6jhSmtaPfabT-59" edge="1">
          <mxGeometry relative="1" as="geometry" />
        </mxCell>
        <mxCell id="EbBNntHS6jhSmtaPfabT-52" value="&lt;div style=&quot;font-size: 14px;&quot;&gt;&lt;span style=&quot;font-weight: 700; text-wrap: nowrap;&quot;&gt;&lt;font style=&quot;font-size: 14px;&quot;&gt;&lt;br&gt;&lt;/font&gt;&lt;/span&gt;&lt;/div&gt;&lt;div style=&quot;font-size: 14px;&quot;&gt;&lt;span style=&quot;font-weight: 700; text-wrap: nowrap;&quot;&gt;&lt;font style=&quot;font-size: 14px;&quot;&gt;&lt;br&gt;&lt;/font&gt;&lt;/span&gt;&lt;/div&gt;&lt;span style=&quot;font-weight: 700; text-wrap: nowrap; font-size: 14px;&quot;&gt;&lt;font style=&quot;font-size: 14px;&quot;&gt;&lt;div style=&quot;&quot;&gt;&lt;span style=&quot;font-weight: 700; text-wrap: nowrap;&quot;&gt;&lt;br&gt;&lt;/span&gt;&lt;/div&gt;&lt;div style=&quot;&quot;&gt;&lt;span style=&quot;font-weight: 700; text-wrap: nowrap;&quot;&gt;&lt;br&gt;&lt;/span&gt;&lt;/div&gt;&lt;div style=&quot;&quot;&gt;&lt;span style=&quot;font-weight: 700; text-wrap: nowrap;&quot;&gt;&lt;br&gt;&lt;/span&gt;&lt;/div&gt;&lt;div style=&quot;&quot;&gt;&lt;span style=&quot;font-weight: 700; text-wrap: nowrap;&quot;&gt;&lt;br&gt;&lt;/span&gt;&lt;/div&gt;&lt;div style=&quot;&quot;&gt;&lt;span style=&quot;font-weight: 700; text-wrap: nowrap;&quot;&gt;&lt;br&gt;&lt;/span&gt;&lt;/div&gt;&lt;div style=&quot;&quot;&gt;&lt;span style=&quot;font-weight: 700; text-wrap: nowrap;&quot;&gt;&lt;br&gt;&lt;/span&gt;&lt;/div&gt;&lt;div style=&quot;&quot;&gt;&lt;span style=&quot;font-weight: 700; text-wrap: nowrap;&quot;&gt;&lt;br&gt;&lt;/span&gt;&lt;/div&gt;Final Discriminator Block&lt;/font&gt;&lt;/span&gt;" style="html=1;align=center;verticalAlign=top;rounded=0;absoluteArcSize=1;arcSize=20;dashed=1;whiteSpace=wrap;fillColor=#cdeb8b;strokeColor=#36393d;strokeWidth=2;" parent="1" vertex="1">
          <mxGeometry x="740" y="761" width="360" height="175" as="geometry" />
        </mxCell>
        <mxCell id="EbBNntHS6jhSmtaPfabT-53" value="&lt;h4 style=&quot;&quot;&gt;&lt;font face=&quot;Helvetica&quot; style=&quot;font-size: 14px;&quot;&gt;CONV 2D&lt;/font&gt;&lt;/h4&gt;" style="rounded=0;arcSize=10;whiteSpace=wrap;html=1;align=center;rotation=-90;fillColor=#C9C9C9;strokeColor=#36393d;" parent="1" vertex="1">
          <mxGeometry x="747" y="825" width="115" height="40" as="geometry" />
        </mxCell>
        <mxCell id="EbBNntHS6jhSmtaPfabT-54" value="&lt;h4 style=&quot;&quot;&gt;&lt;font face=&quot;Helvetica&quot; style=&quot;font-size: 14px;&quot;&gt;CONV 2D&lt;/font&gt;&lt;/h4&gt;" style="rounded=0;arcSize=10;whiteSpace=wrap;html=1;align=center;rotation=-90;fillColor=#C9C9C9;strokeColor=#36393d;" parent="1" vertex="1">
          <mxGeometry x="874" y="825" width="115" height="40" as="geometry" />
        </mxCell>
        <mxCell id="EbBNntHS6jhSmtaPfabT-55" value="&lt;h4 style=&quot;&quot;&gt;&lt;span style=&quot;font-size: 14px;&quot;&gt;RELU&lt;/span&gt;&lt;/h4&gt;" style="rounded=0;arcSize=10;whiteSpace=wrap;html=1;align=center;rotation=-90;fillColor=#e3c800;strokeColor=#B09500;fontColor=#000000;strokeWidth=2;" parent="1" vertex="1">
          <mxGeometry x="809" y="825" width="115" height="40" as="geometry" />
        </mxCell>
        <mxCell id="EbBNntHS6jhSmtaPfabT-56" value="&lt;h4 style=&quot;&quot;&gt;&lt;span style=&quot;font-size: 14px;&quot;&gt;RELU&lt;/span&gt;&lt;/h4&gt;" style="rounded=0;arcSize=10;whiteSpace=wrap;html=1;align=center;rotation=-90;fillColor=#e3c800;strokeColor=#B09500;fontColor=#000000;strokeWidth=2;" parent="1" vertex="1">
          <mxGeometry x="937" y="825" width="115" height="40" as="geometry" />
        </mxCell>
        <mxCell id="VmX1CCBsuHoQ8iaOTjce-16" style="edgeStyle=orthogonalEdgeStyle;rounded=0;orthogonalLoop=1;jettySize=auto;html=1;strokeWidth=2;" parent="1" source="EbBNntHS6jhSmtaPfabT-56" target="EbBNntHS6jhSmtaPfabT-57" edge="1">
          <mxGeometry relative="1" as="geometry" />
        </mxCell>
        <mxCell id="EbBNntHS6jhSmtaPfabT-57" value="" style="shape=image;html=1;verticalAlign=top;verticalLabelPosition=bottom;labelBackgroundColor=#ffffff;imageAspect=0;aspect=fixed;image=https://cdn4.iconfinder.com/data/icons/evil-icons-user-interface/64/plus-128.png;fontSize=14;fontColor=#FF3333;imageBackground=none;rounded=0;" parent="1" vertex="1">
          <mxGeometry x="1040" y="825" width="40" height="40" as="geometry" />
        </mxCell>
        <mxCell id="EbBNntHS6jhSmtaPfabT-58" value="&lt;p style=&quot;line-height: 120%;&quot;&gt;&lt;span style=&quot;font-size: 14px;&quot;&gt;T&lt;/span&gt;&lt;/p&gt;" style="html=1;dashed=0;whiteSpace=wrap;fillColor=#0050ef;fontColor=#ffffff;strokeColor=#001DBC;movable=1;resizable=1;rotatable=1;deletable=1;editable=1;locked=0;connectable=1;rounded=0;" parent="1" vertex="1">
          <mxGeometry x="1133" y="797" width="100" height="35" as="geometry" />
        </mxCell>
        <mxCell id="EbBNntHS6jhSmtaPfabT-59" value="&lt;span style=&quot;font-size: 14px;&quot;&gt;Extracted Features&lt;/span&gt;" style="html=1;dashed=0;whiteSpace=wrap;fillColor=#CC0000;fontColor=#ffffff;strokeColor=#6D1F00;movable=1;resizable=1;rotatable=1;deletable=1;editable=1;locked=0;connectable=1;rounded=0;" parent="1" vertex="1">
          <mxGeometry x="1133" y="832" width="100" height="35" as="geometry" />
        </mxCell>
        <mxCell id="EbBNntHS6jhSmtaPfabT-60" value="&lt;div style=&quot;font-size: 14px;&quot;&gt;&lt;b style=&quot;&quot;&gt;&lt;font style=&quot;font-size: 14px;&quot;&gt;&lt;br&gt;&lt;/font&gt;&lt;/b&gt;&lt;/div&gt;&lt;div style=&quot;font-size: 14px;&quot;&gt;&lt;b&gt;&lt;font style=&quot;font-size: 14px;&quot;&gt;&lt;br&gt;&lt;/font&gt;&lt;/b&gt;&lt;/div&gt;&lt;div style=&quot;font-size: 14px;&quot;&gt;&lt;b&gt;&lt;font style=&quot;font-size: 14px;&quot;&gt;&lt;br&gt;&lt;/font&gt;&lt;/b&gt;&lt;/div&gt;&lt;div style=&quot;font-size: 14px;&quot;&gt;&lt;b&gt;&lt;font style=&quot;font-size: 14px;&quot;&gt;&lt;br&gt;&lt;/font&gt;&lt;/b&gt;&lt;/div&gt;&lt;div style=&quot;font-size: 14px;&quot;&gt;&lt;b&gt;&lt;font style=&quot;font-size: 14px;&quot;&gt;&lt;br&gt;&lt;/font&gt;&lt;/b&gt;&lt;/div&gt;&lt;div style=&quot;font-size: 14px;&quot;&gt;&lt;b&gt;&lt;font style=&quot;font-size: 14px;&quot;&gt;&lt;br&gt;&lt;/font&gt;&lt;/b&gt;&lt;/div&gt;&lt;div style=&quot;font-size: 14px;&quot;&gt;&lt;b&gt;&lt;font style=&quot;font-size: 14px;&quot;&gt;&lt;br&gt;&lt;/font&gt;&lt;/b&gt;&lt;/div&gt;&lt;div style=&quot;font-size: 14px;&quot;&gt;&lt;b&gt;&lt;font style=&quot;font-size: 14px;&quot;&gt;&lt;br&gt;&lt;/font&gt;&lt;/b&gt;&lt;/div&gt;&lt;div style=&quot;font-size: 14px;&quot;&gt;&lt;br&gt;&lt;/div&gt;&lt;div style=&quot;font-size: 14px;&quot;&gt;&lt;b style=&quot;&quot;&gt;&lt;font style=&quot;font-size: 14px;&quot;&gt;Comaparator&lt;/font&gt;&lt;/b&gt;&lt;/div&gt;" style="html=1;align=center;verticalAlign=top;rounded=0;absoluteArcSize=1;arcSize=20;dashed=1;whiteSpace=wrap;fillColor=#e1d5e7;strokeColor=#9673a6;strokeWidth=2;" parent="1" vertex="1">
          <mxGeometry x="970" y="1020" width="252" height="180" as="geometry" />
        </mxCell>
        <mxCell id="VmX1CCBsuHoQ8iaOTjce-23" style="edgeStyle=orthogonalEdgeStyle;rounded=0;orthogonalLoop=1;jettySize=auto;html=1;exitX=1.003;exitY=1.03;exitDx=0;exitDy=0;entryX=0.5;entryY=0;entryDx=0;entryDy=0;strokeWidth=2;exitPerimeter=0;" parent="1" source="EbBNntHS6jhSmtaPfabT-58" edge="1">
          <mxGeometry relative="1" as="geometry">
            <mxPoint x="987.5" y="1107" as="targetPoint" />
            <mxPoint x="1233" y="834" as="sourcePoint" />
            <Array as="points">
              <mxPoint x="1233" y="832" />
              <mxPoint x="1251" y="832" />
              <mxPoint x="1251" y="992" />
              <mxPoint x="950" y="992" />
              <mxPoint x="950" y="1107" />
            </Array>
          </mxGeometry>
        </mxCell>
        <mxCell id="EbBNntHS6jhSmtaPfabT-61" value="&lt;h4 style=&quot;&quot;&gt;&lt;font face=&quot;Helvetica&quot; style=&quot;font-size: 14px;&quot;&gt;CONV 2D&lt;/font&gt;&lt;/h4&gt;" style="rounded=0;arcSize=10;whiteSpace=wrap;html=1;align=center;rotation=-90;fillColor=#C9C9C9;strokeColor=#36393d;" parent="1" vertex="1">
          <mxGeometry x="950" y="1085" width="115" height="40" as="geometry" />
        </mxCell>
        <mxCell id="EbBNntHS6jhSmtaPfabT-62" value="&lt;h4 style=&quot;&quot;&gt;&lt;span style=&quot;font-size: 14px;&quot;&gt;RELU&lt;/span&gt;&lt;/h4&gt;" style="rounded=0;arcSize=10;whiteSpace=wrap;html=1;align=center;rotation=-90;fillColor=#e3c800;strokeColor=#B09500;fontColor=#000000;strokeWidth=2;" parent="1" vertex="1">
          <mxGeometry x="1012" y="1085" width="115" height="40" as="geometry" />
        </mxCell>
        <mxCell id="EbBNntHS6jhSmtaPfabT-63" value="&lt;h4 style=&quot;&quot;&gt;&lt;font face=&quot;Helvetica&quot; style=&quot;font-size: 14px;&quot;&gt;CONV 2D&lt;/font&gt;&lt;/h4&gt;" style="rounded=0;arcSize=10;whiteSpace=wrap;html=1;align=center;rotation=-90;fillColor=#C9C9C9;strokeColor=#36393d;" parent="1" vertex="1">
          <mxGeometry x="1068.96" y="1085" width="115" height="40" as="geometry" />
        </mxCell>
        <mxCell id="VmX1CCBsuHoQ8iaOTjce-21" style="edgeStyle=orthogonalEdgeStyle;rounded=0;orthogonalLoop=1;jettySize=auto;html=1;exitX=0.5;exitY=1;exitDx=0;exitDy=0;entryX=0;entryY=0.5;entryDx=0;entryDy=0;strokeWidth=2;" parent="1" source="EbBNntHS6jhSmtaPfabT-64" target="VmX1CCBsuHoQ8iaOTjce-2" edge="1">
          <mxGeometry relative="1" as="geometry" />
        </mxCell>
        <mxCell id="EbBNntHS6jhSmtaPfabT-64" value="&lt;h4 style=&quot;&quot;&gt;&lt;span style=&quot;font-size: 14px;&quot;&gt;RELU&lt;/span&gt;&lt;/h4&gt;" style="rounded=0;arcSize=10;whiteSpace=wrap;html=1;align=center;rotation=-90;fillColor=#e3c800;strokeColor=#B09500;fontColor=#000000;strokeWidth=2;" parent="1" vertex="1">
          <mxGeometry x="1127" y="1085" width="115" height="40" as="geometry" />
        </mxCell>
        <mxCell id="VmX1CCBsuHoQ8iaOTjce-13" style="edgeStyle=orthogonalEdgeStyle;rounded=0;orthogonalLoop=1;jettySize=auto;html=1;jumpSize=7;strokeWidth=2;exitX=1.021;exitY=0.438;exitDx=0;exitDy=0;exitPerimeter=0;" parent="1" source="EbBNntHS6jhSmtaPfabT-51" target="EbBNntHS6jhSmtaPfabT-53" edge="1">
          <mxGeometry relative="1" as="geometry">
            <mxPoint x="720" y="845" as="sourcePoint" />
            <Array as="points">
              <mxPoint x="710" y="844" />
              <mxPoint x="710" y="845" />
            </Array>
          </mxGeometry>
        </mxCell>
        <mxCell id="EbBNntHS6jhSmtaPfabT-65" value="&lt;font style=&quot;font-size: 14px;&quot;&gt;Discriminator Block&lt;/font&gt;" style="text;strokeColor=none;fillColor=none;html=1;fontSize=24;fontStyle=1;verticalAlign=middle;align=center;rotation=-90;rounded=0;" parent="1" vertex="1">
          <mxGeometry x="628" y="835" width="100" height="40" as="geometry" />
        </mxCell>
        <mxCell id="VmX1CCBsuHoQ8iaOTjce-2" value="" style="ellipse;whiteSpace=wrap;html=1;aspect=fixed;fillColor=#B266FF;strokeColor=#9673a6;rounded=0;" parent="1" vertex="1">
          <mxGeometry x="1350" y="815" width="45" height="45" as="geometry" />
        </mxCell>
        <mxCell id="VmX1CCBsuHoQ8iaOTjce-5" style="edgeStyle=orthogonalEdgeStyle;rounded=0;orthogonalLoop=1;jettySize=auto;html=1;exitX=1;exitY=0.5;exitDx=0;exitDy=0;entryX=0.043;entryY=0.445;entryDx=0;entryDy=0;entryPerimeter=0;strokeWidth=2;" parent="1" source="EbBNntHS6jhSmtaPfabT-50" target="EbBNntHS6jhSmtaPfabT-51" edge="1">
          <mxGeometry relative="1" as="geometry" />
        </mxCell>
        <mxCell id="VmX1CCBsuHoQ8iaOTjce-19" style="edgeStyle=elbowEdgeStyle;rounded=0;orthogonalLoop=1;jettySize=auto;html=1;strokeColor=default;elbow=vertical;strokeWidth=2;endArrow=block;endFill=1;entryX=0.5;entryY=1;entryDx=0;entryDy=0;" parent="1" edge="1">
          <mxGeometry relative="1" as="geometry">
            <mxPoint x="1062" y="861" as="targetPoint" />
            <mxPoint x="752" y="846" as="sourcePoint" />
            <Array as="points">
              <mxPoint x="890" y="910" />
            </Array>
          </mxGeometry>
        </mxCell>
        <mxCell id="W_k6zMptxIQwRls6IL_g-1" value="&lt;font style=&quot;font-size: 14px;&quot;&gt;&lt;b&gt;G : Generator Block&lt;/b&gt;&lt;/font&gt;&lt;div style=&quot;font-size: 14px;&quot;&gt;&lt;font style=&quot;font-size: 14px;&quot;&gt;&lt;b&gt;D : Discriminator Block&lt;/b&gt;&lt;/font&gt;&lt;/div&gt;&lt;div style=&quot;font-size: 14px;&quot;&gt;&lt;font style=&quot;font-size: 14px;&quot;&gt;&lt;b&gt;T : Prompt vector&lt;/b&gt;&lt;/font&gt;&lt;/div&gt;&lt;div style=&quot;font-size: 14px;&quot;&gt;&lt;font style=&quot;font-size: 14px;&quot;&gt;&lt;b&gt;Z : Noise Vector&lt;/b&gt;&lt;/font&gt;&lt;/div&gt;" style="text;html=1;align=left;verticalAlign=middle;resizable=0;points=[];autosize=1;strokeColor=none;fillColor=none;strokeWidth=3;" vertex="1" parent="1">
          <mxGeometry x="870" y="93" width="180" height="80" as="geometry" />
        </mxCell>
        <mxCell id="W_k6zMptxIQwRls6IL_g-2" value="&lt;font style=&quot;font-size: 14px;&quot;&gt;&lt;b&gt;Adversarial&amp;nbsp;&lt;/b&gt;&lt;/font&gt;&lt;div&gt;&lt;font style=&quot;font-size: 14px;&quot;&gt;&lt;b&gt;Loss&lt;/b&gt;&lt;/font&gt;&lt;/div&gt;" style="text;html=1;align=center;verticalAlign=middle;resizable=0;points=[];autosize=1;strokeColor=none;fillColor=none;" vertex="1" parent="1">
          <mxGeometry x="1322.5" y="855" width="100" height="50" as="geometry" />
        </mxCell>
      </root>
    </mxGraphModel>
  </diagram>
</mxfile>
